<svg height="64" viewBox="0 0 64 64" width="64" xmlns="http://www.w3.org/2000/svg"><g fill="none" fill-rule="evenodd"><path d="m32 58c8.3020695 0 19.4243786-2.2723561 24.6432969-5.9989305 5.8909054-4.2064075 3.3567031-10.2656327 3.3567031-17.0010695 0-12.7025492-19.9923782-26.94090196-28-26.94090196s-28 14.23835276-28 26.94090196c0 6.7354368-3.53420232 12.794662 2.35670307 17.0010695 5.21891833 3.7265744 17.34122743 5.9989305 25.64329693 5.9989305z" fill="#80d25b"/><circle cx="20.5" cy="38.5" fill="#fff" r="7.5"/><circle cx="42.5" cy="38.5" fill="#fff" r="7.5"/><path d="m25.11 11.406-1.722-2.941 3.35.057 1.89-1.363 2.737.858 2.872-1.023 2.316.794 3.56.902 1.206-1.32-.848 3.257-3.271 1.03-5.993.645z" fill="#22ba8e"/><circle cx="20.5" cy="38.5" fill="#0a3586" r="4.5"/><path d="m15 55h33l-4 5s-6.25-2-12.5-2-12.5 2-12.5 2z" fill="#ed9111"/><circle cx="42.5" cy="38.5" fill="#0a3586" r="4.5"/><g stroke-linecap="round" stroke-width="2"><path d="m12.081896 49.8418621c-.5231723-1.5695171.2968221-2.3608839 1.8941926-1.9062735 0 0 .8194147.8313667 6.1585201.5644114 5.3391053-.2669553 11-2.5 11-2.5s6.3391053 2.2669553 11 2.5c4.6608946.2330447 6.1296436-.6342468 6.1296436-.6342468 1.585254-.4781423 2.4462078.4066925 1.923069 1.9761089l-1.0527126 3.1581379 1.5236392 2.6663687c1.3676563 2.3933985.3846639 3.5302948-2.2248276 2.6268995 0 0-7.2988116-3.2932682-17.2988116-3.2932682s-17.2988117 3.2932682-17.2988117 3.2932682c-2.5963946.9426019-3.5869653-.2431585-2.2248276-2.6268995l1.5236393-2.6663687z" fill="#ffaf40" stroke="#ed9111"/><path d="m17 26c-2.7614237 0-5 2.2385763-5 5" stroke="#22ba8e"/><path d="m51 26c-2.7614237 0-5 2.2385763-5 5" stroke="#22ba8e" transform="matrix(-1 0 0 1 97 0)"/></g></g></svg>